<svg width="9" height="5" viewBox="0 0 9 5" fill="none" xmlns="http://www.w3.org/2000/svg">
<path d="M1.14975 0.514982C1.24566 0.419099 1.37573 0.365234 1.51135 0.365234C1.64697 0.365234 1.77703 0.419099 1.87294 0.514982L4.47255 3.16965L7.13323 0.513324C7.22969 0.420158 7.35889 0.368606 7.49299 0.369772C7.62709 0.370937 7.75537 0.424726 7.8502 0.519554C7.94503 0.614382 7.99882 0.742661 7.99998 0.876763C8.00115 1.01086 7.94959 1.14006 7.85643 1.23652L4.83415 4.25444C4.73824 4.35033 4.60817 4.40419 4.47255 4.40419C4.33693 4.40419 4.20687 4.35033 4.11095 4.25444L1.14975 1.23818C1.05386 1.14227 1 1.0122 1 0.87658C1 0.74096 1.05386 0.610893 1.14975 0.514982Z" fill="#333539" stroke="#323438" stroke-width="0.35"/>
</svg>
