<svg width="15" height="15" viewBox="0 0 15 15" fill="none" xmlns="http://www.w3.org/2000/svg">
<path fill-rule="evenodd" clip-rule="evenodd" d="M10.0914 10.0924C8.18916 11.9942 5.09367 11.9942 3.1914 10.0924C1.28836 8.19053 1.28836 5.09576 3.1914 3.19394C4.11309 2.27171 5.33767 1.76471 6.64103 1.76471C7.9444 1.76471 9.16975 2.27171 10.0914 3.19394C11.9937 5.09576 11.9937 8.19053 10.0914 10.0924V10.0924ZM10.8884 10.3485C12.8236 8.13471 12.7418 4.76159 10.6322 2.65253C9.56596 1.58653 8.14862 1 6.64103 1C5.13344 1 3.71611 1.58653 2.64986 2.65253C0.450047 4.85259 0.450047 8.43294 2.64986 10.633C3.75053 11.7334 5.19616 12.2832 6.64103 12.2832C7.96658 12.2832 9.28907 11.8145 10.3477 10.8892L13.3468 13.8876C13.4217 13.9625 13.5197 14 13.6176 14C13.7155 14 13.8134 13.9625 13.8876 13.8876C14.0375 13.7385 14.0375 13.4968 13.8876 13.3469L10.8884 10.3485Z" fill="#121315"/>
<path d="M3.1914 10.0924L3.36815 9.91556L3.36812 9.91552L3.1914 10.0924ZM3.1914 3.19394L3.36812 3.37077L3.36823 3.37067L3.1914 3.19394ZM10.0914 3.19394L9.9146 3.37067L9.91468 3.37074L10.0914 3.19394ZM10.8884 10.3485L10.7002 10.184L10.5463 10.36L10.7117 10.5253L10.8884 10.3485ZM10.6322 2.65253L10.809 2.47573L10.809 2.47573L10.6322 2.65253ZM2.64986 2.65253L2.4731 2.47573L2.47307 2.47576L2.64986 2.65253ZM2.64986 10.633L2.47307 10.8098L2.4731 10.8098L2.64986 10.633ZM10.3477 10.8892L10.5244 10.7124L10.3591 10.5471L10.1831 10.7009L10.3477 10.8892ZM13.3468 13.8876L13.17 14.0644L13.17 14.0644L13.3468 13.8876ZM13.8876 13.8876L13.7113 13.7103L13.7099 13.7117L13.8876 13.8876ZM13.8876 13.3469L14.0643 13.1701L14.0643 13.1701L13.8876 13.3469ZM9.91468 9.91556C8.11003 11.7198 5.1728 11.7198 3.36815 9.91556L3.01464 10.2692C5.01454 12.2686 8.26829 12.2686 10.2682 10.2692L9.91468 9.91556ZM3.36812 9.91552C1.56279 8.11134 1.56279 5.17495 3.36812 3.37077L3.01468 3.01711C1.01394 5.01658 1.01394 8.26972 3.01468 10.2692L3.36812 9.91552ZM3.36823 3.37067C4.24299 2.49538 5.40395 2.01471 6.64103 2.01471V1.51471C5.27138 1.51471 3.98318 2.04803 3.01457 3.01722L3.36823 3.37067ZM6.64103 2.01471C7.87816 2.01471 9.03987 2.49541 9.9146 3.37067L10.2683 3.01722C9.29962 2.048 8.01064 1.51471 6.64103 1.51471V2.01471ZM9.91468 3.37074C11.7193 5.17493 11.7193 8.11137 9.91468 9.91556L10.2682 10.2692C12.2681 8.26969 12.2681 5.0166 10.2682 3.01714L9.91468 3.37074ZM11.0767 10.5131C13.0975 8.20122 13.0126 4.67881 10.809 2.47573L10.4555 2.82933C12.471 4.84437 12.5497 8.06819 10.7002 10.184L11.0767 10.5131ZM10.809 2.47573C9.6958 1.36283 8.21487 0.75 6.64103 0.75V1.25C8.08238 1.25 9.43612 1.81023 10.4555 2.82933L10.809 2.47573ZM6.64103 0.75C5.0672 0.75 3.58627 1.36283 2.4731 2.47573L2.82661 2.82933C3.84595 1.81023 5.19969 1.25 6.64103 1.25V0.75ZM2.47307 2.47576C0.175643 4.77345 0.175643 8.51208 2.47307 10.8098L2.82665 10.4562C0.724452 8.3538 0.724452 4.93173 2.82665 2.8293L2.47307 2.47576ZM2.4731 10.8098C3.62271 11.9591 5.13283 12.5332 6.64103 12.5332V12.0332C5.2595 12.0332 3.87835 11.5077 2.82661 10.4562L2.4731 10.8098ZM6.64103 12.5332C8.02551 12.5332 9.40686 12.0436 10.5122 11.0774L10.1831 10.7009C9.17128 11.5854 7.90765 12.0332 6.64103 12.0332V12.5332ZM10.1709 11.066L13.17 14.0644L13.5235 13.7108L10.5244 10.7124L10.1709 11.066ZM13.17 14.0644C13.2935 14.1878 13.4557 14.25 13.6176 14.25V13.75C13.5836 13.75 13.55 13.7372 13.5235 13.7108L13.17 14.0644ZM13.6176 14.25C13.7792 14.25 13.942 14.188 14.0652 14.0635L13.7099 13.7117C13.6848 13.7371 13.6518 13.75 13.6176 13.75V14.25ZM14.0639 14.0648C14.3123 13.8177 14.3116 13.4174 14.0643 13.1701L13.7108 13.5237C13.7633 13.5762 13.7627 13.6592 13.7113 13.7103L14.0639 14.0648ZM14.0643 13.1701L11.0652 10.1717L10.7117 10.5253L13.7108 13.5237L14.0643 13.1701Z" fill="#121315"/>
</svg>
